<?xml version="1.0" encoding="utf-8" ?>
<svg baseProfile="full" height="779" version="1.1" width="950" xmlns="http://www.w3.org/2000/svg" xmlns:ev="http://www.w3.org/2001/xml-events" xmlns:xlink="http://www.w3.org/1999/xlink"><defs /><polygon fill="green" points="250.0,259.8076211353316 200.0,173.20508075688775 100.0,173.20508075688775 50.0,259.8076211353316 100.0,346.41016151377545 200.0,346.41016151377545" stroke="black" stroke-width="2" /><text alignment-baseline="middle" fill="none" font-size="12px" stroke="white" stroke-linecap="round" stroke-linejoin="round" stroke-width="4" text-anchor="middle" x="150.0" y="335.140954468665">Foxtear Woods</text><text alignment-baseline="middle" fill="black" font-size="12px" text-anchor="middle" x="150.0" y="335.140954468665">Foxtear Woods</text><polygon fill="orange" points="250.0,433.0127018922193 200.0,346.41016151377545 100.0,346.41016151377545 50.0,433.0127018922193 100.0,519.6152422706632 200.0,519.6152422706632" stroke="black" stroke-width="2" /><polygon fill="#ADD8E6" points="250.0,606.2177826491071 200.0,519.6152422706632 100.0,519.6152422706632 50.0,606.2177826491071 100.0,692.820323027551 200.0,692.820323027551" stroke="black" stroke-width="2" /><polygon fill="#ADD8E6" points="400.0,173.20508075688772 350.0,86.60254037844386 250.0,86.60254037844386 200.0,173.20508075688772 250.0,259.8076211353316 350.0,259.8076211353316" stroke="black" stroke-width="2" /><text alignment-baseline="middle" fill="none" font-size="12px" stroke="white" stroke-linecap="round" stroke-linejoin="round" stroke-width="4" text-anchor="middle" x="300.0" y="248.53841409022107">Mirror Lake</text><text alignment-baseline="middle" fill="black" font-size="12px" text-anchor="middle" x="300.0" y="248.53841409022107">Mirror Lake</text><polygon fill="orange" points="400.0,346.41016151377545 350.0,259.8076211353316 250.0,259.8076211353316 200.0,346.41016151377545 250.0,433.0127018922193 350.0,433.0127018922193" stroke="black" stroke-width="2" /><polygon fill="#ADD8E6" points="550.0,259.8076211353316 500.0,173.20508075688775 400.0,173.20508075688775 350.0,259.8076211353316 400.0,346.41016151377545 500.0,346.41016151377545" stroke="black" stroke-width="2" /><polygon fill="#ADD8E6" points="700.0,173.20508075688772 650.0,86.60254037844386 550.0,86.60254037844386 500.0,173.20508075688772 550.0,259.8076211353316 650.0,259.8076211353316" stroke="black" stroke-width="2" /><polygon fill="orange" points="700.0,346.41016151377545 650.0,259.8076211353316 550.0,259.8076211353316 500.0,346.41016151377545 550.0,433.0127018922193 650.0,433.0127018922193" stroke="black" stroke-width="2" /><polygon fill="#ADD8E6" points="850.0,259.8076211353316 800.0,173.20508075688775 700.0,173.20508075688775 650.0,259.8076211353316 700.0,346.41016151377545 800.0,346.41016151377545" stroke="black" stroke-width="2" /><polygon fill="#ADD8E6" points="550.0,433.0127018922193 500.0,346.41016151377545 400.0,346.41016151377545 350.0,433.0127018922193 400.0,519.6152422706632 500.0,519.6152422706632" stroke="black" stroke-width="2" /><polygon fill="orange" points="550.0,606.2177826491071 500.0,519.6152422706632 400.0,519.6152422706632 350.0,606.2177826491071 400.0,692.820323027551 500.0,692.820323027551" stroke="black" stroke-width="2" /><polygon fill="orange" points="700.0,519.6152422706632 650.0,433.01270189221935 550.0,433.01270189221935 500.0,519.6152422706632 550.0,606.2177826491071 650.0,606.2177826491071" stroke="black" stroke-width="2" /><polygon fill="orange" points="850.0,433.0127018922193 800.0,346.41016151377545 700.0,346.41016151377545 650.0,433.0127018922193 700.0,519.6152422706632 800.0,519.6152422706632" stroke="black" stroke-width="2" /><path d="M 150.0 259.8076211353316 L 225.0 303.1088913245535 Q 300.0 346.41016151377545 375.0 303.1088913245535 Q 450.0 259.8076211353316 525.0 303.1088913245535 L 600.0 346.41016151377545" fill="none" stroke="red" stroke-width="4" /><path d="M 450.0 433.0127018922193 L 525.0 476.31397208144125 Q 600.0 519.6152422706632 675.0 476.31397208144125 Q 750.0 433.0127018922193 750.0 346.41016151377545 Q 750.0 259.8076211353316 675.0 216.50635094610965 L 600.0 173.20508075688772" fill="none" stroke="blue" stroke-width="4" /></svg>